<?xml version="1.0" encoding="UTF-8" standalone="no"?>
<!-- Created with Inkscape (http://www.inkscape.org/) -->

<svg
   width="8.5in"
   height="11in"
   viewBox="0 0 215.9 279.4"
   version="1.1"
   id="svg29573"
   xmlns="http://www.w3.org/2000/svg"
   xmlns:svg="http://www.w3.org/2000/svg">
  <defs
     id="defs29570">
    <clipPath
       clipPathUnits="userSpaceOnUse"
       id="clipPath58240">
      <path
         id="path58242"
         class="cls-1"
         style="fill:none;fill-rule:evenodd;stroke:#000000;stroke-width:0.282466"
         d="m 118.85635,-19.36643 -1.09315,-6.85832 -0.32483,-2.38403 -8.39495,-0.146882 -21.320676,-0.09039 -4.948847,-0.05649 -5.965727,0.0057 -14.129042,-0.355907 -3.991271,-0.06779 -18.97619,-0.13276 -6.24819,-0.08191 0.161005,0.708994 0.632728,0.957568 0.762665,1.691981 0.757013,0.70052 1.0875,0.516916 -0.666623,6.606923 -0.511267,3.994098 -0.70052,6.0871806 -0.31354,3.3105252 -1.460359,13.8324096 -1.305,11.7252416 -1.841692,18.227659 -1.090326,10.657505 -0.864353,8.951407 -1.138344,11.48515 -0.895424,8.457073 -1.344546,12.770394 0.285292,7.462798 0.426526,8.719776 0.378507,7.37524 0.669449,13.84092 0.25987,5.87252 0.683573,15.41426 0.144057,3.34159 1.604419,0.23163 h 0.242924 l 2.245618,-0.34179 1.406691,0.10165 0.172305,-0.3305 3.852862,-13.598 1.997048,-2.7004 2.883997,0.0424 0.598832,10.66033 3.409388,6.26514 0.951915,-0.29658 1.330423,-0.27117 3.00546,-0.4237 2.545035,-0.72595 1.63549,-0.2514 0.406753,-0.86435 0.432177,-0.16947 1.107274,-0.45761 0.372856,-0.42369 v -0.83046 l 0.742892,-1.51968 0.830455,-0.11016 0.872826,-0.63555 0.07627,-0.69769 -1.361496,-0.39547 -0.677924,-0.88977 0.161006,-0.6299 -0.533862,-0.46043 0.401104,-1.48012 0.547988,-0.48585 0.392629,-1.54228 0.40393,-0.8926 -0.112987,-1.03666 -0.30789,-0.73723 -0.502795,-0.24575 -0.209026,-0.15253 -0.742889,-0.54798 -0.79091,-0.21186 -0.197727,-0.45477 -0.632729,-0.14123 -1.002761,-0.83048 -0.607306,-1.59876 -0.836104,-0.87001 -0.762664,-0.47172 -0.821981,-0.95474 -0.276817,-0.75419 0.468893,-0.7796 1.014062,-2.95461 -0.322014,-1.19201 8.764977,-0.014 2.932018,0.0451 3.739875,-0.11299 12.857942,0.11581 0.615785,0.0706 4.559033,-0.0196 1.398206,0.0735 2.875536,-0.0282 6.999557,-0.003 4.957313,0.0451 6.02786,-0.0283 4.05058,-0.0622 6.98544,-0.0508 9.36946,-0.16101 7.82436,0.008 0.0791,-0.53668 -0.37286,-1.45755 -0.57057,-0.88132 -0.23445,-1.1807 -0.61578,-0.47738 -0.74855,-1.40104 -0.72311,-0.28811 -0.22033,-1.40385 0.33049,-0.86718 -0.49149,-1.70046 0.0481,-0.42654 0.66945,-0.49713 0.18077,-1.2598 -0.25703,-1.3728 0.48584,-1.42646 0.0763,-0.85588 0.28811,-0.21751 -0.18642,-1.43211 0.87282,-1.9914 0.10734,-0.76266 -0.53951,-1.12988 0.0169,-1.81627 -0.87564,-0.77396 0.11579,-0.53384 -0.37002,-0.25989 -1.07055,-1.330411 -0.0338,-0.82763 0.24575,-0.604485 -0.3305,-0.988641 0.0932,-0.386979 -0.50279,-0.505625 0.28811,-0.389804 0.0253,-1.353021 -0.31354,-0.429331 0.0368,-0.692057 0.38417,-0.720304 -0.13278,-0.63555 0.5141,0.0044 0.32202,-0.836101 0.90954,-0.963223 -0.25423,-0.672271 0.67511,-0.508438 -0.161,-0.401098 0.24009,-0.855882 0.47172,-0.720298 -0.23728,-0.200552 0.014,-1.759757 0.28247,-0.610145 -0.4689,-1.499893 1.71457,-1.994224 1.42929,-0.499987 -0.50279,-0.480184 0.37568,-0.435012 1.23155,-0.0029 0.89263,-1.463172 0.45476,-0.135601 -1.74848,-1.618548 -1.9321,-0.757009 -0.0367,-0.872822 0.63555,-0.629905 0.0283,-1.101614 0.47738,-0.06216 -0.36157,-0.731574 0.50562,-0.392633 -0.2627,-0.796571 -0.70051,-0.302237 -0.0424,-1.355833 -0.24574,-1.316309 -0.55082,-0.875649 -1.5225,-1.434956 -0.80221,-2.090248 -0.38133,-0.418059 0.50845,-0.398279 -0.77679,-1.115748 -0.2401,-1.46882 0.13276,-0.61861 -0.44064,-0.118632 -0.42653,-0.680751 0.53385,-0.706178 -0.88976,-0.610109 -0.5028,-0.663817 0.0114,-0.618597 0.46324,-0.717456 -0.20054,-0.344634 -0.7429,-0.141226 -0.74288,-4.414973 -0.86436,-5.163504 -2.33036,-14.496265 -1.48578,-8.99943 -0.87282,-5.496822 -1.64115,-10.0699783 -0.0395,-0.4180534 -1.32478,-7.9429967 -0.87563,-4.8443246 z" />
    </clipPath>
  </defs>
  <g
     id="layer1">
    <path
       id="polygon20125-1"
       class="cls-1"
       style="fill:#ffffff;fill-rule:evenodd;stroke:#000000;stroke-width:5;stroke-dasharray:none;stroke-opacity:1"
       d="m 157.39542,28.311699 -1.49653,-9.389165 -0.44471,-3.26378 -11.49283,-0.201085 -29.1884,-0.123746 -6.77506,-0.07734 -8.167187,0.0078 -19.34292,-0.487243 -5.464123,-0.09281 -25.978753,-0.181751 -8.553887,-0.112141 0.220421,0.970625 0.866217,1.310927 1.044099,2.316354 1.036366,0.959025 1.488809,0.707668 -0.912621,9.044999 -0.699934,5.467991 -0.959023,8.333464 -0.429243,4.532168 -1.999258,18.936823 -1.78657,16.05207 -2.521309,24.953998 -1.492676,14.59032 -1.183314,12.25464 -1.558416,15.72338 -1.22585,11.57789 -1.84071,17.4829 0.39057,10.21671 0.583924,11.93753 0.518182,10.09684 0.916489,18.94848 0.355767,8.03958 0.935823,21.10241 0.197218,4.5747 2.196478,0.3171 h 0.332566 l 3.074293,-0.46791 1.925785,0.13915 0.235889,-0.45245 5.274639,-18.61591 2.733995,-3.6969 3.948245,0.0581 0.819811,14.59418 4.667515,8.5771 1.30319,-0.40603 1.821373,-0.37123 4.11453,-0.58006 3.4842,-0.99383 2.239015,-0.34417 0.556852,-1.18332 0.591658,-0.23201 1.515877,-0.62647 0.510448,-0.58004 v -1.13691 l 1.017033,-2.08047 1.136908,-0.15082 1.194914,-0.87008 0.10442,-0.95516 -1.863912,-0.54139 -0.928089,-1.21812 0.22042,-0.86234 -0.730868,-0.63033 0.549118,-2.02632 0.750206,-0.66514 0.537518,-2.1114 0.552985,-1.22199 -0.15468,-1.41921 -0.421506,-1.00928 -0.688335,-0.33644 -0.28616,-0.20881 -1.01703,-0.7502 -1.082771,-0.29003 -0.270693,-0.62259 -0.866216,-0.19335 -1.372798,-1.13694 -0.831414,-2.18873 -1.144641,-1.19106 -1.044101,-0.64579 -1.125308,-1.30706 -0.378968,-1.0325 0.641926,-1.06729 1.388268,-4.04491 -0.440843,-1.63189 11.999415,-0.0193 4.013986,0.0618 5.119956,-0.15467 17.60276,0.15855 0.84302,0.0966 6.2414,-0.0269 1.91417,0.10056 3.93666,-0.0386 9.58252,-0.004 6.78665,0.0618 8.25225,-0.0388 5.54532,-0.0851 9.56319,-0.0695 12.82696,-0.22043 10.71169,0.0111 0.10834,-0.73473 -0.51045,-1.9954 -0.78113,-1.20653 -0.32097,-1.61641 -0.84301,-0.65355 -1.02478,-1.91804 -0.98994,-0.39443 -0.30164,-1.9219 0.45245,-1.18718 -0.67287,-2.32797 0.0658,-0.58394 0.91649,-0.68058 0.24748,-1.7247 -0.35188,-1.87938 0.66512,-1.95286 0.10439,-1.17171 0.39443,-0.29776 -0.25522,-1.9606 1.19492,-2.72625 0.14694,-1.0441 -0.7386,-1.54682 0.0232,-2.48651 -1.19876,-1.05956 0.15852,-0.73085 -0.50657,-0.35579 -1.46559,-1.82137 -0.0463,-1.13303 0.33643,-0.82756 -0.45245,-1.35346 0.12758,-0.52979 -0.68833,-0.6922 0.39444,-0.53365 0.0347,-1.85231 -0.42924,-0.58777 0.0503,-0.94743 0.52594,-0.98611 -0.18178,-0.87008 0.70381,0.006 0.44086,-1.14464 1.24518,-1.31867 -0.34805,-0.92035 0.92424,-0.69606 -0.22042,-0.54911 0.32869,-1.17172 0.64579,-0.9861 -0.32483,-0.27455 0.0193,-2.40915 0.38671,-0.8353 -0.64194,-2.05338 2.34729,-2.73013 1.95672,-0.68449 -0.68833,-0.65739 0.51431,-0.59553 1.68602,-0.004 1.22201,-2.00311 0.62259,-0.18564 -2.39371,-2.21581 -2.64507,-1.03637 -0.0503,-1.19491 0.87008,-0.86235 0.0388,-1.50814 0.65353,-0.0851 -0.495,-1.00154 0.6922,-0.53753 -0.35963,-1.09051 -0.95902,-0.41377 -0.0581,-1.85617 -0.33643,-1.80205 -0.75408,-1.19878 -2.08433,-1.96447 -1.09824,-2.86159 -0.52205,-0.57233 0.69608,-0.54526 -1.06344,-1.52747 -0.32871,-2.01085 0.18176,-0.84688 -0.60325,-0.16242 -0.58392,-0.93196 0.73085,-0.96676 -1.2181,-0.83527 -0.68835,-0.90876 0.0156,-0.84688 0.63419,-0.98221 -0.27455,-0.4718 -1.01706,-0.19335 -1.01702,-6.04417 -1.1833,-7.06895 -3.19031,-19.845638 -2.03407,-12.320382 -1.1949,-7.525252 -2.24676,-13.785985 -0.0541,-0.572322 -1.81365,-10.874108 -1.19877,-6.631969 z" />
    <g
       id="g56631"
       transform="matrix(1.3690183,0,0,1.3690183,-5.3210908,54.824697)"
       clip-path="url(#clipPath58240)">
      <path
         id="path14459-5"
         style="color:#000000;fill:none;stroke:#b10021;stroke-width:2;stroke-dasharray:none;stroke-opacity:1"
         d="M 6.3947199e-7,1.0659103e-6 V 10.811225 L 63.157901,52.916664 6.3947199e-7,95.022104 V 105.83333 H 16.217099 L 79.374999,63.727894 142.5329,105.83333 H 158.75 V 95.022104 L 95.592097,52.916664 158.75,10.811225 V 1.0659103e-6 H 142.5329 L 79.374999,42.10544 16.217099,1.0659103e-6 Z" />
      <path
         id="path26999-6"
         style="fill:#64c9f9;fill-opacity:1;stroke-width:0.229136"
         d="M 0,0 V 10.811226 L 63.157902,52.916667 0,95.022107 V 105.83333 H 16.217098 L 79.375,63.727893 142.5329,105.83333 H 158.75 V 95.022107 L 95.592098,52.916667 158.75,10.811226 V 0 H 142.5329 L 79.375,42.10544 16.217098,0 Z" />
      <path
         id="path14459-2"
         style="color:#000000;fill:#f0a5b7;fill-opacity:1;stroke-width:0.264583;-inkscape-stroke:none"
         d="m 27.439152,29.104167 35.71875,23.8125 -35.71875,23.8125 H 59.873348 L 79.375,63.727893 98.876652,76.729167 h 32.434198 l -35.718752,-23.8125 35.718752,-23.8125 H 98.876652 L 79.375,42.10544 59.873348,29.104167 Z" />
      <path
         id="path27003-9"
         style="fill:#ffffff;stroke-width:0.198438"
         d="m 51.251652,44.979167 11.90625,7.9375 -11.90625,7.9375 h 56.246698 l -11.906252,-7.9375 11.906252,-7.9375 z" />
    </g>
    <path
       id="polygon20125"
       class="cls-1"
       style="fill:none;fill-rule:evenodd;stroke:#000000;stroke-width:5;stroke-dasharray:none;stroke-opacity:1"
       d="m 157.39542,28.311699 -1.49653,-9.389165 -0.44471,-3.26378 -11.49283,-0.201085 -29.1884,-0.123746 -6.77506,-0.07734 -8.167187,0.0078 -19.34292,-0.487243 -5.464123,-0.09281 -25.978753,-0.181751 -8.553887,-0.112141 0.220421,0.970625 0.866217,1.310927 1.044099,2.316354 1.036366,0.959025 1.488809,0.707668 -0.912621,9.044999 -0.699934,5.467991 -0.959023,8.333464 -0.429243,4.532168 -1.999258,18.936823 -1.78657,16.05207 -2.521309,24.953998 -1.492676,14.59032 -1.183314,12.25464 -1.558416,15.72338 -1.22585,11.57789 -1.84071,17.4829 0.39057,10.21671 0.583924,11.93753 0.518182,10.09684 0.916489,18.94848 0.355767,8.03958 0.935823,21.10241 0.197218,4.5747 2.196478,0.3171 h 0.332566 l 3.074293,-0.46791 1.925785,0.13915 0.235889,-0.45245 5.274639,-18.61591 2.733995,-3.6969 3.948245,0.0581 0.819811,14.59418 4.667515,8.5771 1.30319,-0.40603 1.821373,-0.37123 4.11453,-0.58006 3.4842,-0.99383 2.239015,-0.34417 0.556852,-1.18332 0.591658,-0.23201 1.515877,-0.62647 0.510448,-0.58004 v -1.13691 l 1.017033,-2.08047 1.136908,-0.15082 1.194914,-0.87008 0.10442,-0.95516 -1.863912,-0.54139 -0.928089,-1.21812 0.22042,-0.86234 -0.730868,-0.63033 0.549118,-2.02632 0.750206,-0.66514 0.537518,-2.1114 0.552985,-1.22199 -0.15468,-1.41921 -0.421506,-1.00928 -0.688335,-0.33644 -0.28616,-0.20881 -1.01703,-0.7502 -1.082771,-0.29003 -0.270693,-0.62259 -0.866216,-0.19335 -1.372798,-1.13694 -0.831414,-2.18873 -1.144641,-1.19106 -1.044101,-0.64579 -1.125308,-1.30706 -0.378968,-1.0325 0.641926,-1.06729 1.388268,-4.04491 -0.440843,-1.63189 11.999415,-0.0193 4.013986,0.0618 5.119956,-0.15467 17.60276,0.15855 0.84302,0.0966 6.2414,-0.0269 1.91417,0.10056 3.93666,-0.0386 9.58252,-0.004 6.78665,0.0618 8.25225,-0.0388 5.54532,-0.0851 9.56319,-0.0695 12.82696,-0.22043 10.71169,0.0111 0.10834,-0.73473 -0.51045,-1.9954 -0.78113,-1.20653 -0.32097,-1.61641 -0.84301,-0.65355 -1.02478,-1.91804 -0.98994,-0.39443 -0.30164,-1.9219 0.45245,-1.18718 -0.67287,-2.32797 0.0658,-0.58394 0.91649,-0.68058 0.24748,-1.7247 -0.35188,-1.87938 0.66512,-1.95286 0.10439,-1.17171 0.39443,-0.29776 -0.25522,-1.9606 1.19492,-2.72625 0.14694,-1.0441 -0.7386,-1.54682 0.0232,-2.48651 -1.19876,-1.05956 0.15852,-0.73085 -0.50657,-0.35579 -1.46559,-1.82137 -0.0463,-1.13303 0.33643,-0.82756 -0.45245,-1.35346 0.12758,-0.52979 -0.68833,-0.6922 0.39444,-0.53365 0.0347,-1.85231 -0.42924,-0.58777 0.0503,-0.94743 0.52594,-0.98611 -0.18178,-0.87008 0.70381,0.006 0.44086,-1.14464 1.24518,-1.31867 -0.34805,-0.92035 0.92424,-0.69606 -0.22042,-0.54911 0.32869,-1.17172 0.64579,-0.9861 -0.32483,-0.27455 0.0193,-2.40915 0.38671,-0.8353 -0.64194,-2.05338 2.34729,-2.73013 1.95672,-0.68449 -0.68833,-0.65739 0.51431,-0.59553 1.68602,-0.004 1.22201,-2.00311 0.62259,-0.18564 -2.39371,-2.21581 -2.64507,-1.03637 -0.0503,-1.19491 0.87008,-0.86235 0.0388,-1.50814 0.65353,-0.0851 -0.495,-1.00154 0.6922,-0.53753 -0.35963,-1.09051 -0.95902,-0.41377 -0.0581,-1.85617 -0.33643,-1.80205 -0.75408,-1.19878 -2.08433,-1.96447 -1.09824,-2.86159 -0.52205,-0.57233 0.69608,-0.54526 -1.06344,-1.52747 -0.32871,-2.01085 0.18176,-0.84688 -0.60325,-0.16242 -0.58392,-0.93196 0.73085,-0.96676 -1.2181,-0.83527 -0.68835,-0.90876 0.0156,-0.84688 0.63419,-0.98221 -0.27455,-0.4718 -1.01706,-0.19335 -1.01702,-6.04417 -1.1833,-7.06895 -3.19031,-19.845638 -2.03407,-12.320382 -1.1949,-7.525252 -2.24676,-13.785985 -0.0541,-0.572322 -1.81365,-10.874108 -1.19877,-6.631969 z" />
  </g>
</svg>
